M48
; DRILL file {KiCad 5.1.3} date Sat 12 Oct 2019 01:27:02 AM PDT
; FORMAT={-:-/ absolute / metric / decimal}
; #@! TF.CreationDate,2019-10-12T01:27:02-07:00
; #@! TF.GenerationSoftware,Kicad,Pcbnew,5.1.3
; #@! TF.FileFunction,Plated,1,2,PTH
FMAT,2
METRIC
T1C0.800
T2C0.900
T3C1.016
T4C1.100
T5C1.200
%
G90
G05
T1
X71.96Y-72.39
X74.5Y-69.85
X74.5Y-74.93
X104.06Y-59.27
X104.06Y-64.27
X87.55Y-52.07
X95.17Y-52.07
X78.025Y-56.515
X78.025Y-64.135
X70.16Y-58.0
X70.16Y-63.0
X100.25Y-48.26
X105.25Y-48.26
X83.89Y-57.65
X83.89Y-65.27
X86.43Y-57.65
X86.43Y-65.27
X88.97Y-57.65
X88.97Y-65.27
X91.51Y-57.65
X91.51Y-65.27
X94.05Y-57.65
X94.05Y-65.27
X96.59Y-57.65
X96.59Y-65.27
X99.13Y-57.65
X99.13Y-65.27
X111.68Y-48.26
X116.68Y-48.26
X116.0Y-82.55
X116.0Y-85.09
X116.0Y-87.63
X116.0Y-90.17
X123.62Y-82.55
X123.62Y-85.09
X123.62Y-87.63
X123.62Y-90.17
X130.73Y-74.93
X130.73Y-82.55
X133.27Y-74.93
X133.27Y-82.55
X135.81Y-74.93
X135.81Y-82.55
X138.35Y-74.93
X138.35Y-82.55
X140.89Y-74.93
X140.89Y-82.55
X143.43Y-74.93
X143.43Y-82.55
X145.97Y-74.93
X145.97Y-82.55
X148.51Y-74.93
X148.51Y-82.55
X117.0Y-78.0
X122.0Y-78.0
X62.15Y-85.725
X69.77Y-85.725
X109.0Y-83.0
X109.0Y-87.88
X147.28Y-58.42
X149.78Y-58.42
X109.14Y-57.65
X109.14Y-65.27
X111.68Y-57.65
X111.68Y-65.27
X114.22Y-57.65
X114.22Y-65.27
X116.76Y-57.65
X116.76Y-65.27
X119.3Y-57.65
X119.3Y-65.27
X121.84Y-57.65
X121.84Y-65.27
X124.38Y-57.65
X124.38Y-65.27
X126.92Y-57.65
X126.92Y-65.27
X83.74Y-69.85
X91.36Y-69.85
X104.0Y-78.0
X104.0Y-83.0
X86.995Y-88.265
X94.615Y-88.265
X98.98Y-52.07
X106.6Y-52.07
X87.55Y-48.26
X95.17Y-48.26
X74.215Y-56.515
X74.215Y-64.135
X96.44Y-69.85
X104.06Y-69.85
X104.0Y-88.0
X104.0Y-93.0
X128.19Y-90.0
X135.81Y-90.0
X110.41Y-52.07
X118.03Y-52.07
X140.89Y-58.42
X143.39Y-58.42
T2
X89.535Y-78.82
X89.535Y-81.32
X89.535Y-83.82
X92.835Y-78.82
X92.835Y-81.32
X92.835Y-83.82
T3
X116.92Y-97.0
X116.92Y-99.54
X119.46Y-97.0
X119.46Y-99.54
X122.0Y-97.0
X122.0Y-99.54
T4
X143.43Y-50.8
X145.97Y-50.8
X148.51Y-50.8
T5
X52.0Y-63.0
X52.0Y-66.5
X52.0Y-70.0
X52.0Y-73.5
X52.0Y-77.0
X52.0Y-80.5
X77.47Y-97.79
X80.97Y-97.79
X84.47Y-97.79
X87.97Y-97.79
X91.47Y-97.79
T0
M30
