G04 #@! TF.GenerationSoftware,KiCad,Pcbnew,5.1.3*
G04 #@! TF.CreationDate,2019-08-04T20:11:08-07:00*
G04 #@! TF.ProjectId,ap206-pll,61703230-362d-4706-9c6c-2e6b69636164,1*
G04 #@! TF.SameCoordinates,Original*
G04 #@! TF.FileFunction,Soldermask,Top*
G04 #@! TF.FilePolarity,Negative*
%FSLAX46Y46*%
G04 Gerber Fmt 4.6, Leading zero omitted, Abs format (unit mm)*
G04 Created by KiCad (PCBNEW 5.1.3) date 2019-08-04 20:11:08*
%MOMM*%
%LPD*%
G04 APERTURE LIST*
%ADD10R,1.600000X1.600000*%
%ADD11C,1.600000*%
%ADD12O,1.727200X1.727200*%
%ADD13R,1.727200X1.727200*%
%ADD14O,1.600000X1.600000*%
%ADD15C,1.440000*%
%ADD16O,1.905000X2.000000*%
%ADD17R,1.905000X2.000000*%
%ADD18C,1.500000*%
%ADD19C,4.000000*%
%ADD20R,2.400000X2.400000*%
%ADD21C,2.400000*%
G04 APERTURE END LIST*
D10*
X149780000Y-58420000D03*
D11*
X147280000Y-58420000D03*
X122000000Y-78000000D03*
X117000000Y-78000000D03*
X143390000Y-58420000D03*
D10*
X140890000Y-58420000D03*
D11*
X116680000Y-48260000D03*
X111680000Y-48260000D03*
X105250000Y-48260000D03*
X100250000Y-48260000D03*
X70160000Y-58000000D03*
X70160000Y-63000000D03*
X104000000Y-78000000D03*
X104000000Y-83000000D03*
X104000000Y-93000000D03*
X104000000Y-88000000D03*
X104060000Y-64270000D03*
X104060000Y-59270000D03*
D12*
X116920000Y-99540000D03*
X116920000Y-97000000D03*
X119460000Y-99540000D03*
X119460000Y-97000000D03*
X122000000Y-99540000D03*
D13*
X122000000Y-97000000D03*
D11*
X110410000Y-52070000D03*
D14*
X118030000Y-52070000D03*
X106600000Y-52070000D03*
D11*
X98980000Y-52070000D03*
D14*
X83740000Y-69850000D03*
D11*
X91360000Y-69850000D03*
D14*
X95170000Y-48260000D03*
D11*
X87550000Y-48260000D03*
D14*
X87550000Y-52070000D03*
D11*
X95170000Y-52070000D03*
X104060000Y-69850000D03*
D14*
X96440000Y-69850000D03*
D11*
X78025000Y-64135000D03*
D14*
X78025000Y-56515000D03*
X74215000Y-64135000D03*
D11*
X74215000Y-56515000D03*
X135810000Y-90000000D03*
D14*
X128190000Y-90000000D03*
D15*
X69770000Y-69850000D03*
X67230000Y-72390000D03*
X69770000Y-74930000D03*
D16*
X148510000Y-50800000D03*
X145970000Y-50800000D03*
D17*
X143430000Y-50800000D03*
D14*
X123620000Y-82550000D03*
X116000000Y-90170000D03*
X123620000Y-85090000D03*
X116000000Y-87630000D03*
X123620000Y-87630000D03*
X116000000Y-85090000D03*
X123620000Y-90170000D03*
D10*
X116000000Y-82550000D03*
D14*
X130730000Y-74930000D03*
X148510000Y-82550000D03*
X133270000Y-74930000D03*
X145970000Y-82550000D03*
X135810000Y-74930000D03*
X143430000Y-82550000D03*
X138350000Y-74930000D03*
X140890000Y-82550000D03*
X140890000Y-74930000D03*
X138350000Y-82550000D03*
X143430000Y-74930000D03*
X135810000Y-82550000D03*
X145970000Y-74930000D03*
X133270000Y-82550000D03*
X148510000Y-74930000D03*
D10*
X130730000Y-82550000D03*
X109140000Y-65270000D03*
D14*
X126920000Y-57650000D03*
X111680000Y-65270000D03*
X124380000Y-57650000D03*
X114220000Y-65270000D03*
X121840000Y-57650000D03*
X116760000Y-65270000D03*
X119300000Y-57650000D03*
X119300000Y-65270000D03*
X116760000Y-57650000D03*
X121840000Y-65270000D03*
X114220000Y-57650000D03*
X124380000Y-65270000D03*
X111680000Y-57650000D03*
X126920000Y-65270000D03*
X109140000Y-57650000D03*
D18*
X109000000Y-87880000D03*
X109000000Y-83000000D03*
D11*
X69770000Y-85725000D03*
D14*
X62150000Y-85725000D03*
D19*
X50000000Y-50000000D03*
X50000000Y-99000000D03*
X160000000Y-50000000D03*
X160000000Y-99000000D03*
D10*
X83890000Y-65270000D03*
D14*
X99130000Y-57650000D03*
X86430000Y-65270000D03*
X96590000Y-57650000D03*
X88970000Y-65270000D03*
X94050000Y-57650000D03*
X91510000Y-65270000D03*
X91510000Y-57650000D03*
X94050000Y-65270000D03*
X88970000Y-57650000D03*
X96590000Y-65270000D03*
X86430000Y-57650000D03*
X99130000Y-65270000D03*
X83890000Y-57650000D03*
D20*
X52000000Y-63000000D03*
D21*
X52000000Y-66500000D03*
X52000000Y-70000000D03*
X52000000Y-73500000D03*
X52000000Y-77000000D03*
X52000000Y-80500000D03*
D20*
X77470000Y-97790000D03*
D21*
X80970000Y-97790000D03*
X84470000Y-97790000D03*
X87970000Y-97790000D03*
X91470000Y-97790000D03*
D11*
X94615000Y-88265000D03*
D14*
X86995000Y-88265000D03*
D10*
X89535000Y-83820000D03*
D11*
X89535000Y-81320000D03*
X89535000Y-78820000D03*
X92735000Y-83820000D03*
X92735000Y-81320000D03*
X92735000Y-78820000D03*
M02*
